<mxfile host="app.diagrams.net" agent="Mozilla/5.0 (Windows NT 10.0; Win64; x64) AppleWebKit/537.36 (KHTML, like Gecko) Chrome/134.0.0.0 Safari/537.36" version="26.1.3">
  <diagram id="C5RBs43oDa-KdzZeNtuy" name="Page-1">
    <mxGraphModel dx="1909" dy="1104" grid="1" gridSize="10" guides="1" tooltips="1" connect="1" arrows="1" fold="1" page="1" pageScale="1" pageWidth="827" pageHeight="1169" math="0" shadow="0">
      <root>
        <mxCell id="WIyWlLk6GJQsqaUBKTNV-0" />
        <mxCell id="WIyWlLk6GJQsqaUBKTNV-1" parent="WIyWlLk6GJQsqaUBKTNV-0" />
        <mxCell id="_6gM1oEJwZBRFXto4Cd2-40" value="" style="rounded=0;whiteSpace=wrap;html=1;" vertex="1" parent="WIyWlLk6GJQsqaUBKTNV-1">
          <mxGeometry x="70" y="180" width="1540" height="710" as="geometry" />
        </mxCell>
        <mxCell id="_6gM1oEJwZBRFXto4Cd2-2" value="Usuário" style="rounded=1;whiteSpace=wrap;html=1;fillColor=#ffe6cc;strokeColor=#d79b00;" vertex="1" parent="WIyWlLk6GJQsqaUBKTNV-1">
          <mxGeometry x="140" y="460" width="120" height="60" as="geometry" />
        </mxCell>
        <mxCell id="_6gM1oEJwZBRFXto4Cd2-3" value="API Gateway" style="rounded=0;whiteSpace=wrap;html=1;fillColor=#dae8fc;strokeColor=#6c8ebf;" vertex="1" parent="WIyWlLk6GJQsqaUBKTNV-1">
          <mxGeometry x="620" y="460" width="120" height="60" as="geometry" />
        </mxCell>
        <mxCell id="_6gM1oEJwZBRFXto4Cd2-4" value="Vet Service" style="rounded=0;whiteSpace=wrap;html=1;fillColor=#dae8fc;strokeColor=#6c8ebf;" vertex="1" parent="WIyWlLk6GJQsqaUBKTNV-1">
          <mxGeometry x="860" y="460" width="120" height="60" as="geometry" />
        </mxCell>
        <mxCell id="_6gM1oEJwZBRFXto4Cd2-5" value="Costumer Service" style="rounded=0;whiteSpace=wrap;html=1;fillColor=#dae8fc;strokeColor=#6c8ebf;" vertex="1" parent="WIyWlLk6GJQsqaUBKTNV-1">
          <mxGeometry x="860" y="270" width="120" height="60" as="geometry" />
        </mxCell>
        <mxCell id="_6gM1oEJwZBRFXto4Cd2-6" value="Visit Services" style="rounded=0;whiteSpace=wrap;html=1;fillColor=#dae8fc;strokeColor=#6c8ebf;" vertex="1" parent="WIyWlLk6GJQsqaUBKTNV-1">
          <mxGeometry x="860" y="650" width="120" height="60" as="geometry" />
        </mxCell>
        <mxCell id="_6gM1oEJwZBRFXto4Cd2-7" value="Repositórios" style="rounded=0;whiteSpace=wrap;html=1;fillColor=#dae8fc;strokeColor=#6c8ebf;" vertex="1" parent="WIyWlLk6GJQsqaUBKTNV-1">
          <mxGeometry x="1100" y="460" width="120" height="60" as="geometry" />
        </mxCell>
        <mxCell id="_6gM1oEJwZBRFXto4Cd2-8" value="Database" style="rounded=0;whiteSpace=wrap;html=1;fillColor=#dae8fc;strokeColor=#6c8ebf;" vertex="1" parent="WIyWlLk6GJQsqaUBKTNV-1">
          <mxGeometry x="1340.5" y="460" width="120" height="60" as="geometry" />
        </mxCell>
        <mxCell id="_6gM1oEJwZBRFXto4Cd2-16" value="" style="endArrow=classic;startArrow=classic;html=1;rounded=0;fontSize=12;startSize=8;endSize=8;curved=1;entryX=1;entryY=0.5;entryDx=0;entryDy=0;exitX=0;exitY=0.5;exitDx=0;exitDy=0;" edge="1" parent="WIyWlLk6GJQsqaUBKTNV-1" source="_6gM1oEJwZBRFXto4Cd2-5" target="_6gM1oEJwZBRFXto4Cd2-3">
          <mxGeometry width="50" height="50" relative="1" as="geometry">
            <mxPoint x="369" y="580" as="sourcePoint" />
            <mxPoint x="419" y="530" as="targetPoint" />
          </mxGeometry>
        </mxCell>
        <mxCell id="_6gM1oEJwZBRFXto4Cd2-18" value="" style="endArrow=classic;startArrow=classic;html=1;rounded=0;fontSize=12;startSize=8;endSize=8;curved=1;exitX=1;exitY=0.5;exitDx=0;exitDy=0;entryX=0;entryY=0.5;entryDx=0;entryDy=0;" edge="1" parent="WIyWlLk6GJQsqaUBKTNV-1" source="_6gM1oEJwZBRFXto4Cd2-3" target="_6gM1oEJwZBRFXto4Cd2-6">
          <mxGeometry width="50" height="50" relative="1" as="geometry">
            <mxPoint x="599" y="580" as="sourcePoint" />
            <mxPoint x="649" y="530" as="targetPoint" />
          </mxGeometry>
        </mxCell>
        <mxCell id="_6gM1oEJwZBRFXto4Cd2-19" value="" style="endArrow=classic;startArrow=classic;html=1;rounded=0;fontSize=12;startSize=8;endSize=8;curved=1;entryX=1;entryY=0.5;entryDx=0;entryDy=0;exitX=0;exitY=0.5;exitDx=0;exitDy=0;" edge="1" parent="WIyWlLk6GJQsqaUBKTNV-1" source="_6gM1oEJwZBRFXto4Cd2-4" target="_6gM1oEJwZBRFXto4Cd2-3">
          <mxGeometry width="50" height="50" relative="1" as="geometry">
            <mxPoint x="499" y="600" as="sourcePoint" />
            <mxPoint x="549" y="550" as="targetPoint" />
          </mxGeometry>
        </mxCell>
        <mxCell id="_6gM1oEJwZBRFXto4Cd2-20" value="" style="endArrow=classic;startArrow=classic;html=1;rounded=0;fontSize=12;startSize=8;endSize=8;curved=1;entryX=1;entryY=0.5;entryDx=0;entryDy=0;exitX=0;exitY=0.5;exitDx=0;exitDy=0;" edge="1" parent="WIyWlLk6GJQsqaUBKTNV-1" source="_6gM1oEJwZBRFXto4Cd2-25" target="_6gM1oEJwZBRFXto4Cd2-2">
          <mxGeometry width="50" height="50" relative="1" as="geometry">
            <mxPoint x="350" y="480" as="sourcePoint" />
            <mxPoint x="329.9999999999998" y="450" as="targetPoint" />
          </mxGeometry>
        </mxCell>
        <mxCell id="_6gM1oEJwZBRFXto4Cd2-21" value="" style="endArrow=classic;startArrow=classic;html=1;rounded=0;fontSize=12;startSize=8;endSize=8;curved=1;entryX=1.037;entryY=0.629;entryDx=0;entryDy=0;exitX=0;exitY=0.5;exitDx=0;exitDy=0;entryPerimeter=0;" edge="1" parent="WIyWlLk6GJQsqaUBKTNV-1" source="_6gM1oEJwZBRFXto4Cd2-7" target="_6gM1oEJwZBRFXto4Cd2-5">
          <mxGeometry width="50" height="50" relative="1" as="geometry">
            <mxPoint x="319" y="790" as="sourcePoint" />
            <mxPoint x="369" y="740" as="targetPoint" />
          </mxGeometry>
        </mxCell>
        <mxCell id="_6gM1oEJwZBRFXto4Cd2-22" value="" style="endArrow=classic;startArrow=classic;html=1;rounded=0;fontSize=12;startSize=8;endSize=8;curved=1;entryX=1;entryY=0.5;entryDx=0;entryDy=0;exitX=0;exitY=0.5;exitDx=0;exitDy=0;" edge="1" parent="WIyWlLk6GJQsqaUBKTNV-1" source="_6gM1oEJwZBRFXto4Cd2-7" target="_6gM1oEJwZBRFXto4Cd2-4">
          <mxGeometry width="50" height="50" relative="1" as="geometry">
            <mxPoint x="299" y="820" as="sourcePoint" />
            <mxPoint x="349" y="770" as="targetPoint" />
          </mxGeometry>
        </mxCell>
        <mxCell id="_6gM1oEJwZBRFXto4Cd2-24" value="" style="endArrow=classic;startArrow=classic;html=1;rounded=0;fontSize=12;startSize=8;endSize=8;curved=1;entryX=1;entryY=0.5;entryDx=0;entryDy=0;exitX=0;exitY=0.5;exitDx=0;exitDy=0;" edge="1" parent="WIyWlLk6GJQsqaUBKTNV-1" source="_6gM1oEJwZBRFXto4Cd2-8" target="_6gM1oEJwZBRFXto4Cd2-7">
          <mxGeometry width="50" height="50" relative="1" as="geometry">
            <mxPoint x="289" y="880" as="sourcePoint" />
            <mxPoint x="339" y="830" as="targetPoint" />
          </mxGeometry>
        </mxCell>
        <mxCell id="_6gM1oEJwZBRFXto4Cd2-25" value="Front-end (UI)" style="rounded=0;whiteSpace=wrap;html=1;fillColor=#dae8fc;strokeColor=#6c8ebf;" vertex="1" parent="WIyWlLk6GJQsqaUBKTNV-1">
          <mxGeometry x="380" y="460" width="120" height="60" as="geometry" />
        </mxCell>
        <mxCell id="_6gM1oEJwZBRFXto4Cd2-27" value="" style="endArrow=classic;startArrow=classic;html=1;rounded=0;fontSize=12;startSize=8;endSize=8;curved=1;entryX=1;entryY=0.5;entryDx=0;entryDy=0;exitX=0;exitY=0.5;exitDx=0;exitDy=0;" edge="1" parent="WIyWlLk6GJQsqaUBKTNV-1" source="_6gM1oEJwZBRFXto4Cd2-3" target="_6gM1oEJwZBRFXto4Cd2-25">
          <mxGeometry width="50" height="50" relative="1" as="geometry">
            <mxPoint x="524" y="390" as="sourcePoint" />
            <mxPoint x="524" y="300" as="targetPoint" />
          </mxGeometry>
        </mxCell>
        <mxCell id="_6gM1oEJwZBRFXto4Cd2-28" value="&lt;h1 style=&quot;margin-top: 0px;&quot;&gt;&lt;span style=&quot;font-size: 12px; font-weight: 400;&quot;&gt;Interface entre o Sistema e o Usuário&lt;/span&gt;&lt;/h1&gt;" style="text;html=1;whiteSpace=wrap;overflow=hidden;rounded=0;spacing=2;verticalAlign=middle;textDirection=ltr;align=center;fillColor=#f5f5f5;fontColor=#333333;strokeColor=none;" vertex="1" parent="WIyWlLk6GJQsqaUBKTNV-1">
          <mxGeometry x="357.5" y="530" width="165" height="65" as="geometry" />
        </mxCell>
        <mxCell id="_6gM1oEJwZBRFXto4Cd2-30" value="&lt;h1 style=&quot;margin-top: 0px; margin-bottom: 16.08px;&quot;&gt;&lt;span style=&quot;font-weight: 400; line-height: 100%;&quot;&gt;&lt;font style=&quot;font-size: 12px; line-height: 100%;&quot;&gt;Controladores recebendo requisições via http e realizando redirecionamento das chamadas para os serviços solicitados&lt;/font&gt;&lt;/span&gt;&lt;/h1&gt;" style="text;html=1;whiteSpace=wrap;overflow=hidden;rounded=0;spacing=2;verticalAlign=middle;textDirection=ltr;align=center;fillColor=#f5f5f5;fontColor=#333333;strokeColor=none;" vertex="1" parent="WIyWlLk6GJQsqaUBKTNV-1">
          <mxGeometry x="600" y="530" width="160" height="160" as="geometry" />
        </mxCell>
        <mxCell id="_6gM1oEJwZBRFXto4Cd2-31" value="&lt;h1 style=&quot;margin-top: 0px; margin-bottom: 16.08px;&quot;&gt;&lt;span style=&quot;font-weight: 400; line-height: 100%;&quot;&gt;&lt;font style=&quot;font-size: 12px; line-height: 100%;&quot;&gt;Serviço de Registro de Visitas&lt;/font&gt;&lt;/span&gt;&lt;/h1&gt;&lt;div&gt;&lt;span style=&quot;font-weight: 400; line-height: 100%;&quot;&gt;&lt;font style=&quot;font-size: 12px; line-height: 100%;&quot;&gt;Data - Hora - Cliente&lt;/font&gt;&lt;/span&gt;&lt;/div&gt;" style="text;html=1;whiteSpace=wrap;overflow=hidden;rounded=0;spacing=2;verticalAlign=middle;textDirection=ltr;align=center;fillColor=#f5f5f5;fontColor=#333333;strokeColor=none;" vertex="1" parent="WIyWlLk6GJQsqaUBKTNV-1">
          <mxGeometry x="833.5" y="720" width="173" height="70" as="geometry" />
        </mxCell>
        <mxCell id="_6gM1oEJwZBRFXto4Cd2-33" value="&lt;h1 style=&quot;margin-top: 0px; margin-bottom: 16.08px;&quot;&gt;&lt;span style=&quot;font-size: 12px; font-weight: 400;&quot;&gt;Cadastro de Veterinários e Especialistas&lt;/span&gt;&lt;/h1&gt;" style="text;html=1;whiteSpace=wrap;overflow=hidden;rounded=0;spacing=2;verticalAlign=middle;textDirection=ltr;align=center;fillColor=#f5f5f5;fontColor=#333333;strokeColor=none;" vertex="1" parent="WIyWlLk6GJQsqaUBKTNV-1">
          <mxGeometry x="833.5" y="530" width="173" height="70" as="geometry" />
        </mxCell>
        <mxCell id="_6gM1oEJwZBRFXto4Cd2-34" value="&lt;h1 style=&quot;margin-top: 0px; margin-bottom: 16.08px;&quot;&gt;&lt;span style=&quot;font-size: 12px; font-weight: 400;&quot;&gt;Cadastro de Clientes/Pets&lt;/span&gt;&lt;/h1&gt;" style="text;html=1;whiteSpace=wrap;overflow=hidden;rounded=0;spacing=2;verticalAlign=middle;textDirection=ltr;align=center;fillColor=#f5f5f5;fontColor=#333333;strokeColor=none;" vertex="1" parent="WIyWlLk6GJQsqaUBKTNV-1">
          <mxGeometry x="833.5" y="340" width="173" height="70" as="geometry" />
        </mxCell>
        <mxCell id="_6gM1oEJwZBRFXto4Cd2-35" value="&lt;h1 style=&quot;margin-top: 0px; margin-bottom: 16.08px;&quot;&gt;&lt;span style=&quot;font-size: 12px; font-weight: 400;&quot;&gt;Conexão com o Banco de Dados&lt;/span&gt;&lt;/h1&gt;" style="text;html=1;whiteSpace=wrap;overflow=hidden;rounded=0;spacing=2;verticalAlign=middle;textDirection=ltr;align=center;fillColor=#f5f5f5;fontColor=#333333;strokeColor=none;" vertex="1" parent="WIyWlLk6GJQsqaUBKTNV-1">
          <mxGeometry x="1073.5" y="530" width="173" height="70" as="geometry" />
        </mxCell>
        <mxCell id="_6gM1oEJwZBRFXto4Cd2-36" value="&lt;h1 style=&quot;margin-top: 0px; margin-bottom: 16.08px;&quot;&gt;&lt;span style=&quot;font-size: 12px; font-weight: 400;&quot;&gt;Armazenamento de Dados&lt;/span&gt;&lt;/h1&gt;&lt;div&gt;&lt;span style=&quot;font-size: 12px; font-weight: 400;&quot;&gt;Médicos, Clientes e Pets&lt;/span&gt;&lt;/div&gt;" style="text;html=1;whiteSpace=wrap;overflow=hidden;rounded=0;spacing=2;verticalAlign=middle;textDirection=ltr;align=center;fillColor=#f5f5f5;fontColor=#333333;strokeColor=none;" vertex="1" parent="WIyWlLk6GJQsqaUBKTNV-1">
          <mxGeometry x="1314" y="530" width="173" height="70" as="geometry" />
        </mxCell>
        <mxCell id="_6gM1oEJwZBRFXto4Cd2-23" value="" style="endArrow=classic;startArrow=classic;html=1;rounded=0;fontSize=12;startSize=8;endSize=8;curved=1;entryX=1;entryY=0.5;entryDx=0;entryDy=0;exitX=0;exitY=0.5;exitDx=0;exitDy=0;" edge="1" parent="WIyWlLk6GJQsqaUBKTNV-1" source="_6gM1oEJwZBRFXto4Cd2-7" target="_6gM1oEJwZBRFXto4Cd2-6">
          <mxGeometry width="50" height="50" relative="1" as="geometry">
            <mxPoint x="629" y="770" as="sourcePoint" />
            <mxPoint x="679" y="720" as="targetPoint" />
          </mxGeometry>
        </mxCell>
      </root>
    </mxGraphModel>
  </diagram>
</mxfile>
